<svg id="Layer_1" data-name="Layer 1" xmlns="http://www.w3.org/2000/svg" viewBox="0 0 1271.38 596.33"><defs><style>.cls-1{opacity:0.86;}.cls-10,.cls-11,.cls-12,.cls-2,.cls-3,.cls-4,.cls-5,.cls-6,.cls-7,.cls-8,.cls-9{fill:#fff;isolation:isolate;}.cls-2{opacity:0.15;}.cls-3{opacity:0.26;}.cls-4{opacity:0.2;}.cls-5{opacity:0.17;}.cls-6{opacity:0.25;}.cls-7{opacity:0.16;}.cls-8{opacity:0.13;}.cls-9{opacity:0.19;}.cls-10{opacity:0.11;}.cls-11{opacity:0.23;}.cls-12{opacity:0.22;}</style></defs><rect width="1271.38" height="596.33"/><g class="cls-1"><path class="cls-2" d="M302.49,173.87A10.83,10.83,0,1,0,291.66,163a10.82,10.82,0,0,0,10.83,10.83Z" transform="translate(185.84 203.91)"/><path class="cls-3" d="M298.32,189.28a10.83,10.83,0,1,0,10.83-10.82,10.83,10.83,0,0,0-10.83,10.82Z" transform="translate(185.84 203.91)"/><path class="cls-3" d="M302.91,207.18a18.75,18.75,0,1,0,18.73,18.76v0A18.75,18.75,0,0,0,302.91,207.18Z" transform="translate(185.84 203.91)"/><path class="cls-4" d="M358.71,172.2a15.87,15.87,0,1,0,15.86,15.87A15.88,15.88,0,0,0,358.71,172.2Z" transform="translate(185.84 203.91)"/><path class="cls-5" d="M414.92,147.64A17.07,17.07,0,1,0,432,164.69a17.08,17.08,0,0,0-17.07-17.05Z" transform="translate(185.84 203.91)"/><path class="cls-6" d="M451.15,175.11a9.59,9.59,0,1,0-9.59,9.59,9.58,9.58,0,0,0,9.59-9.59Z" transform="translate(185.84 203.91)"/><path class="cls-7" d="M457.44,220.51a9.58,9.58,0,1,0,9.58,9.58h0a9.56,9.56,0,0,0-9.57-9.57Z" transform="translate(185.84 203.91)"/><path class="cls-2" d="M574.4,185.53a12.08,12.08,0,1,0,12.07,12.09v0A12.07,12.07,0,0,0,574.4,185.53Z" transform="translate(185.84 203.91)"/><circle class="cls-8" cx="824.36" cy="391.94" r="14.99"/><path class="cls-9" d="M718.89,184.7a19.16,19.16,0,1,0-19.16,19.15h0A19.16,19.16,0,0,0,718.89,184.7Z" transform="translate(185.84 203.91)"/><circle class="cls-10" cx="904.73" cy="425.63" r="10.42"/><path class="cls-6" d="M680.58,206.35A10.42,10.42,0,1,0,691,216.76h0a10.41,10.41,0,0,0-10.41-10.4Z" transform="translate(185.84 203.91)"/><path class="cls-2" d="M125.32,163.62a12.09,12.09,0,1,0,12.07,12.1v0A12.08,12.08,0,0,0,125.32,163.62Z" transform="translate(185.84 203.91)"/><circle class="cls-8" cx="169.12" cy="211.51" r="14.99" transform="translate(141.33 581.87) rotate(-89.28)"/><path class="cls-9" d="M249.47,208.17a19.16,19.16,0,1,0-19.16,19.16,19.15,19.15,0,0,0,19.16-19.16Z" transform="translate(185.84 203.91)"/><circle class="cls-10" cx="435.3" cy="449.14" r="10.42"/><path class="cls-6" d="M211.16,229.83a10.4,10.4,0,1,0,10.41,10.4,10.39,10.39,0,0,0-10.41-10.4Z" transform="translate(185.84 203.91)"/><path class="cls-11" d="M808,171.78a17.49,17.49,0,1,0,17.49,17.5A17.49,17.49,0,0,0,808,171.78Z" transform="translate(185.84 203.91)"/><path class="cls-6" d="M791.34,215.92a10.83,10.83,0,1,0,10.83,10.84A10.82,10.82,0,0,0,791.34,215.92Z" transform="translate(185.84 203.91)"/><path class="cls-7" d="M829.65,212.59a8.75,8.75,0,1,0,8.75,8.75h0A8.76,8.76,0,0,0,829.65,212.59Z" transform="translate(185.84 203.91)"/><path class="cls-3" d="M868.37,177.2a15.53,15.53,0,0,0-1.8.11,12.49,12.49,0,1,0-13.36,18,15.41,15.41,0,1,0,15.16-18.11Z" transform="translate(185.84 203.91)"/><path class="cls-11" d="M806.33,128.49a21.24,21.24,0,1,0-21.25,21.23h0A21.23,21.23,0,0,0,806.33,128.49Z" transform="translate(185.84 203.91)"/><path class="cls-11" d="M60.06,176.49A17.49,17.49,0,1,0,77.55,194h0A17.49,17.49,0,0,0,60.06,176.49Z" transform="translate(185.84 203.91)"/><path class="cls-6" d="M43.41,220.62a10.83,10.83,0,1,0,.05,0Z" transform="translate(185.84 203.91)"/><path class="cls-7" d="M81.72,217.29a8.76,8.76,0,1,0,8.73,8.77v0A8.74,8.74,0,0,0,81.72,217.29Z" transform="translate(185.84 203.91)"/><path class="cls-11" d="M58.4,133.18a21.25,21.25,0,1,0-21.26,21.23h0A21.23,21.23,0,0,0,58.4,133.19Z" transform="translate(185.84 203.91)"/><path class="cls-12" d="M499.86,161a21.22,21.22,0,1,0,0,.06Z" transform="translate(185.84 203.91)"/><path class="cls-12" d="M509.44,206.35a30.41,30.41,0,1,0,30.41,30.4h0A30.4,30.4,0,0,0,509.44,206.35Z" transform="translate(185.84 203.91)"/></g></svg>