<svg id="Layer_1" data-name="Layer 1" xmlns="http://www.w3.org/2000/svg" viewBox="0 0 671 223.67"><defs><style>.cls-1{opacity:0.86;}.cls-10,.cls-11,.cls-12,.cls-2,.cls-3,.cls-4,.cls-5,.cls-6,.cls-7,.cls-8,.cls-9{fill:#fff;}.cls-2{opacity:0.15;}.cls-3{opacity:0.26;}.cls-4{opacity:0.2;}.cls-5{opacity:0.17;}.cls-6{opacity:0.25;}.cls-7{opacity:0.16;}.cls-8{opacity:0.13;}.cls-9{opacity:0.19;}.cls-10{opacity:0.11;}.cls-11{opacity:0.23;}.cls-12{opacity:0.22;}</style></defs><rect width="671" height="223.67"/><g class="cls-1"><path class="cls-2" d="M226.78,132.94a8.19,8.19,0,1,0-8.19-8.19A8.19,8.19,0,0,0,226.78,132.94Z" transform="translate(-0.81 0.33)"/><path class="cls-3" d="M223.63,144.6a8.19,8.19,0,1,0,8.19-8.19A8.19,8.19,0,0,0,223.63,144.6Z" transform="translate(-0.81 0.33)"/><path class="cls-3" d="M227.1,158.14a14.18,14.18,0,1,0,14.17,14.17A14.18,14.18,0,0,0,227.1,158.14Z" transform="translate(-0.81 0.33)"/><path class="cls-4" d="M269.31,131.68a12,12,0,1,0,12,12A12,12,0,0,0,269.31,131.68Z" transform="translate(-0.81 0.33)"/><path class="cls-5" d="M311.83,113.1A12.91,12.91,0,1,0,324.75,126,12.91,12.91,0,0,0,311.83,113.1Z" transform="translate(-0.81 0.33)"/><path class="cls-6" d="M339.24,133.88a7.25,7.25,0,1,0-7.25,7.25A7.25,7.25,0,0,0,339.24,133.88Z" transform="translate(-0.81 0.33)"/><path class="cls-7" d="M344,168.22a7.25,7.25,0,1,0,7.25,7.24A7.24,7.24,0,0,0,344,168.22Z" transform="translate(-0.81 0.33)"/><path class="cls-2" d="M432.48,141.76a9.14,9.14,0,1,0,9.13,9.13A9.14,9.14,0,0,0,432.48,141.76Z" transform="translate(-0.81 0.33)"/><circle class="cls-8" cx="480.18" cy="143.98" r="11.34"/><path class="cls-9" d="M541.78,141.13a14.49,14.49,0,1,0-14.49,14.49A14.49,14.49,0,0,0,541.78,141.13Z" transform="translate(-0.81 0.33)"/><circle class="cls-10" cx="541.78" cy="169.16" r="7.88" transform="translate(-20.91 89.3) rotate(-9.22)"/><path class="cls-6" d="M512.8,157.51a7.88,7.88,0,1,0,7.88,7.87A7.87,7.87,0,0,0,512.8,157.51Z" transform="translate(-0.81 0.33)"/><path class="cls-2" d="M92.76,125.19a9.14,9.14,0,1,0,9.13,9.13A9.14,9.14,0,0,0,92.76,125.19Z" transform="translate(-0.81 0.33)"/><circle class="cls-8" cx="125.88" cy="161.41" r="11.34" transform="translate(-37.9 285.59) rotate(-89.28)"/><path class="cls-9" d="M186.67,158.89a14.49,14.49,0,1,0-14.49,14.49A14.48,14.48,0,0,0,186.67,158.89Z" transform="translate(-0.81 0.33)"/><circle class="cls-10" cx="186.67" cy="186.92" r="7.88" transform="translate(-78.31 187.08) rotate(-45)"/><path class="cls-6" d="M157.69,175.27a7.87,7.87,0,1,0,7.88,7.87A7.87,7.87,0,0,0,157.69,175.27Z" transform="translate(-0.81 0.33)"/><path class="cls-11" d="M609.19,131.36a13.23,13.23,0,1,0,13.23,13.24A13.23,13.23,0,0,0,609.19,131.36Z" transform="translate(-0.81 0.33)"/><path class="cls-6" d="M596.59,164.75a8.19,8.19,0,1,0,8.19,8.2A8.2,8.2,0,0,0,596.59,164.75Z" transform="translate(-0.81 0.33)"/><path class="cls-7" d="M625.57,162.23a6.62,6.62,0,1,0,6.62,6.62A6.63,6.63,0,0,0,625.57,162.23Z" transform="translate(-0.81 0.33)"/><path class="cls-3" d="M654.86,135.46a12.26,12.26,0,0,0-1.36.08,9.45,9.45,0,1,0-10.11,13.62,11.66,11.66,0,1,0,11.47-13.7Z" transform="translate(-0.81 0.33)"/><path class="cls-11" d="M607.93,98.61a16.07,16.07,0,1,0-16.06,16.06A16.06,16.06,0,0,0,607.93,98.61Z" transform="translate(-0.81 0.33)"/><path class="cls-11" d="M43.39,134.92a13.23,13.23,0,1,0,13.23,13.23A13.23,13.23,0,0,0,43.39,134.92Z" transform="translate(-0.81 0.33)"/><path class="cls-6" d="M30.79,168.31A8.19,8.19,0,1,0,39,176.5,8.18,8.18,0,0,0,30.79,168.31Z" transform="translate(-0.81 0.33)"/><path class="cls-7" d="M59.77,165.79a6.62,6.62,0,1,0,6.61,6.61A6.61,6.61,0,0,0,59.77,165.79Z" transform="translate(-0.81 0.33)"/><path class="cls-11" d="M42.13,102.16a16.07,16.07,0,1,0-16.07,16.06A16.06,16.06,0,0,0,42.13,102.16Z" transform="translate(-0.81 0.33)"/><path class="cls-12" d="M376.09,123.17A16.07,16.07,0,1,0,360,139.24,16.06,16.06,0,0,0,376.09,123.17Z" transform="translate(-0.81 0.33)"/><path class="cls-12" d="M383.34,157.51a23,23,0,1,0,23,23A23,23,0,0,0,383.34,157.51Z" transform="translate(-0.81 0.33)"/></g></svg>