<svg id="Layer_1" data-name="Layer 1" xmlns="http://www.w3.org/2000/svg" xmlns:xlink="http://www.w3.org/1999/xlink" viewBox="0 0 1189.91 768.74"><defs><style>.cls-1{fill:url(#radial-gradient);}.cls-2{fill:none;}.cls-3{fill:#959996;}.cls-4{clip-path:url(#clip-path);}.cls-5{mask:url(#mask);}.cls-6{opacity:0.27;}.cls-7{fill:#fff;}</style><radialGradient id="radial-gradient" cx="357.94" cy="-190.8" r="46.6" gradientTransform="translate(-4038.74 2294.07) scale(11.65 11.45)" gradientUnits="userSpaceOnUse"><stop offset="0.15"/><stop offset="0.23" stop-color="#0a0a0a"/><stop offset="0.35" stop-color="#232323"/><stop offset="0.5" stop-color="#4e4e4e"/><stop offset="0.68" stop-color="#888"/><stop offset="0.88" stop-color="#d2d2d2"/><stop offset="1" stop-color="#fff"/></radialGradient><clipPath id="clip-path" transform="translate(467.04 268.72)"><rect class="cls-2" x="0.1" y="1.69" width="671" height="219.87"/></clipPath><mask id="mask" x="0" y="-41.35" width="1253.5" height="907.51" maskUnits="userSpaceOnUse"><g transform="translate(467.04 268.72)"><rect class="cls-1" x="-446.03" y="-310.07" width="1232.49" height="907.51"/></g></mask></defs><rect class="cls-3" x="467.14" y="270.17" width="671" height="219.87"/><g class="cls-4"><g class="cls-5"><g class="cls-6"><polygon class="cls-7" points="600.05 768.74 594.96 384.4 679.04 765.87 600.05 768.74"/><polygon class="cls-7" points="589.85 0 594.95 384.33 510.87 2.87 589.85 0"/><polygon class="cls-7" points="753.87 756.69 594.97 384.4 828.62 740.7 753.87 756.69"/><polygon class="cls-7" points="436.04 12.05 594.93 384.34 361.28 28.05 436.04 12.05"/><polygon class="cls-7" points="896.85 719.27 594.98 384.4 962.28 691.23 896.85 719.27"/><polygon class="cls-7" points="293.06 49.47 594.92 384.34 227.63 77.5 293.06 49.47"/><polygon class="cls-7" points="1019.26 659.02 594.99 384.39 1070.9 620.86 1019.26 659.02"/><polygon class="cls-7" points="170.65 109.72 594.91 384.35 119 147.87 170.65 109.72"/><polygon class="cls-7" points="1112.75 580.06 595 384.38 1147.09 534.38 1112.75 580.06"/><polygon class="cls-7" points="77.16 188.68 594.9 384.35 42.82 234.36 77.16 188.68"/><polygon class="cls-7" points="1170.95 487.76 595.01 384.38 1185.65 437.67 1170.95 487.76"/><polygon class="cls-7" points="18.95 280.98 594.9 384.36 4.26 331.07 18.95 280.98"/><polygon class="cls-7" points="1189.91 388.42 595.01 384.37 1183.95 337.32 1189.91 388.42"/><polygon class="cls-7" points="0 380.32 594.9 384.37 5.95 431.41 0 380.32"/><polygon class="cls-7" points="1168.32 288.8 595 384.36 1142.12 240.19 1168.32 288.8"/><polygon class="cls-7" points="21.59 479.94 594.9 384.38 47.78 528.55 21.59 479.94"/><polygon class="cls-7" points="1107.65 195.69 595 384.35 1063 152.88 1107.65 195.69"/><polygon class="cls-7" points="82.26 573.05 594.91 384.39 126.9 615.86 82.26 573.05"/><polygon class="cls-7" points="1012.05 115.44 594.99 384.34 951.98 81.34 1012.05 115.44"/><polygon class="cls-7" points="177.87 653.3 594.92 384.4 237.92 687.4 177.87 653.3"/><polygon class="cls-7" points="888.02 53.52 594.98 384.34 816.63 30.46 888.02 53.52"/><polygon class="cls-7" points="301.9 715.22 594.93 384.4 373.27 738.28 301.9 715.22"/><polygon class="cls-7" points="744.01 14.14 594.96 384.34 666.17 3.69 744.01 14.14"/><polygon class="cls-7" points="445.9 754.59 594.94 384.4 523.73 765.05 445.9 754.59"/></g></g></g></svg>