<?xml version="1.0" encoding="UTF-8"?>
<svg width="92px" height="92px" viewBox="0 0 92 92" version="1.1" xmlns="http://www.w3.org/2000/svg" xmlns:xlink="http://www.w3.org/1999/xlink">
    <!-- Generator: Sketch 52.6 (67491) - http://www.bohemiancoding.com/sketch -->
    <title>expand-2</title>
    <desc>Created with Sketch.</desc>
    <g id="Page-1" stroke="none" stroke-width="1" fill="none" fill-rule="evenodd">
        <g id="expand-2">
            <rect id="Rectangle" fill="#A5A5A5" x="0" y="0" width="92" height="92" rx="46"></rect>
            <g id="Group" transform="translate(24.880000, 24.880000)" fill="#FFFFFF" fill-rule="nonzero">
                <path d="M42.24,1.92 L42.24,12 C42.24,13.056 41.376,13.92 40.32,13.92 C39.264,13.92 38.4,13.056 38.4,12 L38.4,6.576 L26.256,18.672 C25.872,19.056 25.392,19.248 24.912,19.248 C24.432,19.248 23.952,19.056 23.568,18.672 C22.8,17.904 22.8,16.704 23.568,15.936 L35.664,3.84 L30.24,3.84 C29.184,3.84 28.32,2.976 28.32,1.92 C28.32,0.864 29.184,0 30.24,0 L40.32,0 C40.848,0 41.328,0.192 41.664,0.576 C42.048,0.912 42.24,1.392 42.24,1.92 Z M15.792,23.76 L3.84,35.664 L3.84,30.24 C3.84,29.184 2.976,28.32 1.92,28.32 C0.864,28.32 0,29.184 0,30.24 L0,40.32 C0,40.848 0.192,41.328 0.576,41.664 C0.912,42.048 1.392,42.24 1.92,42.24 L12,42.24 C13.056,42.24 13.92,41.376 13.92,40.32 C13.92,39.264 13.056,38.4 12,38.4 L6.576,38.4 L18.528,26.448 C19.296,25.68 19.296,24.48 18.528,23.712 C17.76,22.992 16.512,22.992 15.792,23.76 Z" id="XMLID_1138_"></path>
            </g>
        </g>
    </g>
</svg>