<svg id="Layer_1" data-name="Layer 1" xmlns="http://www.w3.org/2000/svg" viewBox="0 0 310.81 233.36"><path d="M437.5,343.94H126.69V236.34H437.5Zm-304.81-6H431.5v-95.6H132.69Z" transform="translate(-126.69 -236.34)"/><circle cx="54.51" cy="53.8" r="32.4"/><rect x="131.49" y="21.4" width="96.25" height="16.05"/><rect x="131.49" y="70.16" width="96.25" height="16.05"/><rect x="117.43" y="45.78" width="124.36" height="16.05"/><path d="M129.69,469.7h-3V362.1H437.5V469.7Zm3-101.6v95.6H431.5V368.1Z" transform="translate(-126.69 -236.34)"/><circle cx="256.29" cy="179.56" r="32.4"/><rect x="209.76" y="432.26" width="96.25" height="16.05" transform="translate(389.08 644.22) rotate(180)"/><rect x="209.76" y="383.5" width="96.25" height="16.05" transform="translate(389.08 546.71) rotate(180)"/><rect x="195.7" y="407.88" width="124.36" height="16.05" transform="translate(389.08 595.46) rotate(180)"/></svg>