<svg id="Layer_1" data-name="Layer 1" xmlns="http://www.w3.org/2000/svg" viewBox="0 0 279.63 240.45"><path d="M720.47,396.32c-4.44-1.48-7.63-4.15-8.4-9a16.76,16.76,0,0,1-.15-2.65c0-9.69.05-19.39,0-29.08a11.61,11.61,0,0,1,5.56-10.48q38.79-25.77,77.51-51.63c4.14-2.76,8.26-2.73,12.41,0Q846,319.27,884.69,345a11.61,11.61,0,0,1,5.65,10.61c-.12,9.15-.25,18.3,0,27.44.2,6.54-2,11.09-8.41,13.26h-4.1a48.1,48.1,0,0,1-4.84-2.51q-34.93-23.21-69.79-46.53c-1.65-1.1-2.69-1-4.25.06q-33.4,22.37-66.91,44.58c-2.41,1.6-5,2.94-7.51,4.4Z" transform="translate(-661.28 -155.87)"/><path d="M801.1,241.49l-60.26,40.14q-26.57,17.7-53.12,35.42c-5.64,3.78-11.5,4.62-17.55,1.41s-8.89-8.67-8.89-15.56q0-23.61,0-47.2a17.06,17.06,0,0,1,8.06-15.13q61.29-40.83,122.57-81.67c6.05-4,12.33-4.05,18.36,0q61.32,40.78,122.57,81.67a16.93,16.93,0,0,1,8.06,15.1c-.07,15.84,0,31.68,0,47.52,0,6.81-2.74,12.07-8.77,15.28s-11.88,2.42-17.54-1.36q-55-36.69-110-73.3Z" transform="translate(-661.28 -155.87)"/></svg>