<svg id="Layer_1" data-name="Layer 1" xmlns="http://www.w3.org/2000/svg" viewBox="0 0 43.93 45.5"><path d="M1268.84,1272.57a4.51,4.51,0,0,1-1.87-1.36q-5-5.18-9.94-10.34l-.34-.36a18.17,18.17,0,0,1-15.89,2.49,17.76,17.76,0,0,1-9.93-7.4,18.35,18.35,0,1,1,32.53-16.43,18,18,0,0,1,.83,9.44,18.27,18.27,0,0,1-4,8.64l.63.66,10,10.43a2.38,2.38,0,0,1,.15,3.48,5.81,5.81,0,0,1-1.28.75Zm-22.68-40.69a13.57,13.57,0,1,0,13.55,13.57A13.59,13.59,0,0,0,1246.16,1231.88Z" transform="translate(-1227.77 -1227.07)"/></svg>