<svg id="Layer_1" data-name="Layer 1" xmlns="http://www.w3.org/2000/svg" viewBox="0 0 183.42 199.13"><path d="M269.49,368.15H173.32c-14.72,0-25.83-9.45-28.3-24.09-5.37-31.85-10.87-64.19-16.34-96.11l-.24-1.49c-.55-3.4-1.12-6.92-3.14-9.81-3.29-4.73-7.83-7.05-13.89-7.1h-5.64v-9.92h5.68c9.29.07,16.88,4,22,11.35,3.31,4.73,4.13,9.82,4.79,13.9.08.47.15.94.23,1.4l2.4,14H280.54a8.66,8.66,0,0,1,8.27,11.23l-1.25,4c-.88,2.82-1.74,5.61-2.62,8.39-3.29,10.43-6.64,21.05-9.95,31.6-4.13,13.19-13.21,19.87-27,19.87H153.62q.6,3.51,1.18,7c1.67,9.91,8.6,15.82,18.52,15.82h96.17ZM152.12,325.47H248c9.32,0,14.73-4,17.53-12.92,3.3-10.55,6.65-21.19,10-31.61.87-2.77,1.73-5.54,2.6-8.36l.74-2.37H142.71c2.87,16.77,5.76,33.76,8.56,50.23Z" transform="translate(-105.77 -219.63)"/><path d="M164.32,382.73a13.06,13.06,0,1,1-13.06,13.06,13.06,13.06,0,0,1,13.06-13.06m0-9.93a23,23,0,1,0,23,23,23,23,0,0,0-23-23Z" transform="translate(-105.77 -219.63)"/><path d="M255.36,382.73a13.06,13.06,0,1,1-13.06,13.06,13.05,13.05,0,0,1,13.06-13.06m0-9.93a23,23,0,1,0,23,23,23,23,0,0,0-23-23Z" transform="translate(-105.77 -219.63)"/></svg>