<svg id="Layer_1" data-name="Layer 1" xmlns="http://www.w3.org/2000/svg" viewBox="0 0 408.86 408.9"><path d="M1213,1429.81v-24c.25-1.41.53-2.82.74-4.24,1.27-8.8,2-17.72,3.89-26.39,10.67-49.09,35.89-89.32,75.88-119.61,49.75-37.68,105.78-50.18,166.87-37.44,48.9,10.19,88.65,35.82,119.06,75.34,32.84,42.68,46.5,91.29,41.36,144.77-4.16,43.34-21,81.61-49.87,114.28-31.67,35.8-71.11,58.11-118.25,66.5-7.7,1.37-15.5,2.14-23.25,3.19h-24a20.89,20.89,0,0,0-3.08-.66c-32-2.26-61.89-11.42-89.2-28.14-53-32.44-85.56-79.24-97-140.45C1214.75,1445.34,1214,1437.54,1213,1429.81Zm204.59-184.65c-95.13-.18-172.52,77-172.83,172.43-.31,95,76.92,172.46,172.35,172.9,95.09.44,173-77.27,173-172.62S1513,1245.34,1417.59,1245.16Z" transform="translate(-1213 -1213.35)"/><path d="M1441.5,1418.3c-1.7-1.76-2.67-2.82-3.69-3.84l-63-63c-4.72-4.72-6.62-10.25-4.52-16.73,2-6.11,6.36-9.71,12.66-10.78a14.55,14.55,0,0,1,13.18,4.22q39.3,39.18,78.46,78.5c6.85,6.9,6.32,16.11-1,23.41q-23.51,23.64-47.14,47.15c-10.26,10.25-20.39,20.64-30.83,30.7-9.19,8.86-23.4,4.93-26.52-7.13a14.76,14.76,0,0,1,2.72-13.18,44.36,44.36,0,0,1,3.75-4.13q31-31.11,62-62.18A47.23,47.23,0,0,1,1441.5,1418.3Z" transform="translate(-1213 -1213.35)"/></svg>