<svg id="Layer_1" data-name="Layer 1" xmlns="http://www.w3.org/2000/svg" viewBox="0 0 150.42 181.77"><path d="M180.19,123.44a33.58,33.58,0,0,1,0,67.16H180a33.5,33.5,0,0,1-33.41-33.35V157a33.43,33.43,0,0,1,33.32-33.54h.33m0-9.92h-.36A43.4,43.4,0,0,0,136.62,157v.35a43.45,43.45,0,0,0,12.81,30.54A42.94,42.94,0,0,0,180,200.52h.32A43.52,43.52,0,0,0,211,187.67a43,43,0,0,0,12.59-30.79,43.36,43.36,0,0,0-43.44-43.36Z" transform="translate(-106.06 -113.52)"/><path d="M208.8,295.29l-13.83,0-13.07,0-.72,0H137.29c-7,0-12.54-1.33-17.44-4.18a27,27,0,0,1-13.73-23.47c-.43-16.13,1.53-29,6.15-40.41,2.61-6.45,6.76-14.51,15.77-19.69a31.75,31.75,0,0,1,15-4.21h.45a12.9,12.9,0,0,1,6.63,2c1.66,1,3.32,2.09,4.79,3l.24.16,2.19,1.4c7.83,5,15.65,7.37,23.91,7.37,1.06,0,2.14,0,3.2-.12a44.13,44.13,0,0,0,20-6.69c1.17-.72,2.29-1.45,3.41-2.17,1.45-.94,3.1-2,4.77-3l.28-.16a14,14,0,0,1,6.73-1.75l.78,0c11.74.66,21.2,7,27.34,18.32,4.19,7.71,6.66,16.34,8,28a151.8,151.8,0,0,1,.83,15.31c.19,17.88-11.67,30.05-29.5,30.24C221.58,295.26,215.8,295.29,208.8,295.29Zm-27.33-10h.2q6.66,0,13.32,0l13.81,0c7,0,12.71,0,18.07-.09,12.27-.13,19.82-7.89,19.69-20.25a141.88,141.88,0,0,0-.77-14.29c-1.17-10.25-3.28-17.76-6.84-24.31-4.54-8.37-10.82-12.67-19.19-13.15a3.72,3.72,0,0,0-2.12.49c-1.52.91-3.09,1.93-4.48,2.83-1.18.76-2.35,1.52-3.54,2.26A54.12,54.12,0,0,1,185.18,227c-11.72.88-22.51-2-33.2-8.76l-2.25-1.44-.25-.16c-1.43-.92-3-2-4.62-2.93l-.1-.06a3,3,0,0,0-1.49-.44h-.06a21.86,21.86,0,0,0-10.23,2.9c-6.34,3.65-9.38,9.53-11.51,14.81-4.09,10.13-5.82,21.71-5.43,36.43.17,6.75,3.13,11.85,8.8,15.16,3.33,1.93,7.28,2.83,12.45,2.83h43.89Z" transform="translate(-106.06 -113.52)"/></svg>