<svg id="Layer_1" data-name="Layer 1" xmlns="http://www.w3.org/2000/svg" viewBox="0 0 386.67903 369.52115">
  <defs>
    <style>
      .cls-1 {
        fill: #3cf;
      }
    </style>
  </defs>
  <path class="cls-1" d="M173.10449,209.38574a18.92205,18.92205,0,0,1-11.37207-3.86816c-4.54053-3.36621-9.54687-9.7002-7.6123-20.75586,2.05371-11.7334,4.083-23.67969,6.0459-35.23242,2.4375-14.34668,4.95752-29.18164,7.5498-43.76172,4.90186-27.563,4.28076-29.72656-13.28613-46.29737l-.37354-.36035c-.1123-.10986-.22265-.22216-.34131-.3247a4.96088,4.96088,0,0,1,6.5-7.4961c.26856.2334.52539.48047.78028.72949l.2417.23389c20.03173,18.89649,21.70214,24.57666,16.24707,55.25147-2.58545,14.543-5.10254,29.35937-7.53662,43.68652-1.96485,11.56543-3.99659,23.52441-6.05469,35.28223-.88867,5.07812.26758,8.49414,3.74853,11.07422,2.3291,1.72753,5.79737,3.291,11.98926.02246q14.23536-7.51026,28.50049-14.96778c17.38476-9.10937,35.36133-18.52832,52.93652-27.96289,13.1792-7.07519,25.99268-7.07715,39.17578-.01172,21.03614,11.27735,42.55176,22.53418,63.35938,33.4209q8.86817,4.63915,17.7334,9.28418c3.709,1.94336,7.31445,2.48633,10.15527,1.53418a8.3584,8.3584,0,0,0,4.92188-4.65039,13.05876,13.05876,0,0,0,1.01562-7.0625c-4.71973-28.75879-9.89062-59.082-15.80762-92.70117-2.4375-13.85254,1.32032-25.72119,11.167-35.27588,12.96875-12.58545,26.12207-25.4209,38.84179-37.83447Q445.50782,7.79712,459.40039-5.73389c3.832-3.728,5.08106-6.54052,4.45606-10.03173-.69239-3.86719-2.4004-7.60792-10.14063-8.7837-7.25781-1.10254-14.66113-2.14746-21.82031-3.15869q-6.64014-.9375-13.2793-1.89209-17.63232-2.55834-35.26172-5.14013L360.21-38.11816c-12.93848-1.88477-22.53223-9.01123-28.51562-21.18213-13.90625-28.28711-27.8252-56.42139-41.28516-83.6294-3.19482-6.459-6.39209-7.54443-10.83691-7.24609a8.40211,8.40211,0,0,0-6.71875,3.727,38.389,38.389,0,0,0-2.93457,5.1958q-4.82374,9.76245-9.65674,19.51807c-9.98828,20.17382-20.3169,41.03466-30.30127,61.62548-6.36377,13.12452-16.71,20.502-31.6294,22.55469-21.9414,3.01856-44.23486,6.27686-65.79394,9.42774q-12.282,1.79444-24.56494,3.58007c-4.8545.70411-7.51172,2.1128-9.1709,4.86182-2.7002,4.47315-2.06153,8.81543,1.89844,12.90527,1.833,1.89356,3.78955,3.78614,5.68164,5.61622,1.96435,1.90087,3.9956,3.86572,5.95605,5.89257a4.9608,4.9608,0,0,1-7.13184,6.89746c-1.84521-1.9082-3.8164-3.81494-5.72265-5.65917-1.94922-1.88575-3.96533-3.83594-5.91113-5.8462-7.064-7.29589-8.28418-16.61718-3.26465-24.9331,4.26806-7.0708,11.31347-8.83887,16.2417-9.55322q12.27831-1.7798,24.55371-3.57911c21.5791-3.1538,43.89355-6.415,65.876-9.43945,11.53955-1.58691,19.18311-7.00635,24.05518-17.0542,10.002-20.62744,20.33936-41.50683,30.33691-61.69873q4.82886-9.75439,9.65284-19.51025a46.66072,46.66072,0,0,1,3.75146-6.56055,18.35238,18.35238,0,0,1,14.124-7.8667c9.17725-.626,15.85108,3.5459,20.40235,12.74512,13.46289,27.21387,27.38476,55.35351,41.2959,83.65185,4.5166,9.188,11.40039,14.33692,21.042,15.7417l23.14941,3.37842q17.625,2.5752,35.252,5.13867,6.61815.96021,13.24121,1.88672c7.18554,1.01465,14.61425,2.06348,21.92382,3.17383,10.50391,1.5957,16.7002,7.26221,18.416,16.84326,1.61133,8.99707-3.39648,15.09033-7.30273,18.89111q-13.89258,13.51978-27.76075,27.06592c-12.72461,12.418-25.88281,25.25879-38.86132,37.854-7.55079,7.32617-10.18946,15.72656-8.30469,26.43652,5.92285,33.65674,11.10058,64.01709,15.82715,92.814a22.799,22.799,0,0,1-1.83008,12.89355,18.15185,18.15185,0,0,1-10.73926,9.83008c-5.42676,1.82519-11.793,1.06054-17.91992-2.15137q-8.8623-4.645-17.72754-9.28125c-20.8291-10.89746-42.36719-22.166-63.44727-33.4668-10.3042-5.52441-19.49316-5.52246-29.79589.00977-17.61915,9.457-35.61817,18.88867-53.02442,28.00879q-14.24487,7.46337-28.4751,14.95508A23.82,23.82,0,0,1,173.10449,209.38574Z" transform="translate(-87.25289 160.13541)"/>
</svg>
